<?xml version="1.0" encoding="UTF-8"?>
<svg id="Google_Scholar" data-name="Google Scholar" xmlns="http://www.w3.org/2000/svg" viewBox="0 0 44 44" fill="#4387F6">
  <path d="m22,0C9.85,0,0,9.85,0,22s9.85,22,22,22,22-9.85,22-22S34.15,0,22,0Zm-4,8h17l-1.01953.88086c0,.04.01953.07914.01953.11914v5.2793c.6.34,1,.9807,1,1.7207v6c0,1.1-.9,2-2,2s-2-.9-2-2v-6c0-.74.4-1.3807,1-1.7207v-3.70899l-3.58984,3.08008c.35.7.58984,1.54984.58984,2.58984,0,2.72-1.5193,4.06953-3.0293,5.26953-.47.48-1.02148,1.00055-1.02148,1.81055,0,.8.55117,1.25031.95117,1.57031l1.28906,1.0293c1.59,1.36,3.03125,2.61062,3.03125,5.14062,0,3.45-3.29023,6.93945-9.49023,6.93945-5.23,0-7.75-2.53-7.75-5.25,0-1.32.6493-3.19047,2.7793-4.48047,2.23-1.39,5.26063-1.57945,6.89062-1.68945-.51-.66-1.08984-1.35-1.08984-2.5,0-.61.18914-.97969.36914-1.42969-.4.04-.80016.08008-1.16016.08008-3.8,0-5.97023-2.88047-5.99023-5.73047h-6.7793l10-9Zm3.26953,3.24023c-.93,0-1.93953.4707-2.51953,1.2207-.61.76-.80078,1.74922-.80078,2.69922,0,2.46,1.42172,6.53906,4.51172,6.53906.91,0,1.87898-.4393,2.45898-1.0293.82-.85.90039-2.01992.90039-2.66992,0-2.65-1.55078-6.75977-4.55078-6.75977Zm1.76953,16.36914c-.32,0-2.2693.06984-3.7793.58984-.8.3-3.09961,1.17125-3.09961,3.78125s2.47984,4.48047,6.33984,4.48047c3.47,0,5.30078-1.7007,5.30078-3.9707,0-1.87-1.17992-2.85984-3.91992-4.83984-.29-.04-.4718-.04102-.8418-.04102Z"/>
</svg>