<?xml version="1.0" encoding="UTF-8"?>
<svg id="Lanuguage-zh" xmlns="http://www.w3.org/2000/svg" viewBox="0 0 18 18" fill="#FFFFFF">
  <path d="m9,2c3.85981,0,7,3.14019,7,7s-3.14019,7-7,7-7-3.14019-7-7,3.14019-7,7-7m0-2C4.02944,0,0,4.02944,0,9s4.02944,9,9,9,9-4.02944,9-9S13.97056,0,9,0h0Z"/>
  <path d="m9.67847,3.67798v2.07568h4.11523v5.62891h-1.36719v-.52881h-2.74805v3.46826h-1.38086v-3.46826h-2.71143v.55225h-1.37988v-5.65234h4.09131v-2.07568h1.38086Zm-4.09229,5.87988h2.71143v-2.48389h-2.71143v2.48389Zm4.09229-2.48389v2.48389h2.74805v-2.48389h-2.74805Z"/>
</svg>