<?xml version="1.0" encoding="UTF-8"?>
<svg id="Language-en" xmlns="http://www.w3.org/2000/svg" viewBox="0 0 18 18" fill="#FFFFFF">
  <path d="m9,2c3.85981,0,7,3.14019,7,7s-3.14019,7-7,7-7-3.14019-7-7,3.14019-7,7-7m0-2C4.02944,0,0,4.02944,0,9s4.02944,9,9,9,9-4.02944,9-9S13.97056,0,9,0h0Z"/>
  <g>
    <path d="m3.42505,12.93726v-7.87451h4.79053v1.33203h-3.49072v1.74561h3.24463v1.32666h-3.24463v2.13818h3.60986v1.33203H3.42505Z"/>
    <path d="m9.4519,12.93726v-7.87451h1.26758l2.64258,5.2583v-5.2583h1.21289v7.87451h-1.31055l-2.59961-5.13525v5.13525h-1.21289Z"/>
  </g>
</svg>