<?xml version="1.0" encoding="UTF-8"?>
<svg id="LinkedIn" data-name="LinkedIn" xmlns="http://www.w3.org/2000/svg" viewBox="0 0 35 35" fill="#0A66C2">
  <path d="m34.24416.73239C33.77003.26426,33.13108.00139,32.46506.00048H2.60488c-.67669-.01306-1.33095.2431-1.81923.7122C.29731,1.18178.01482,1.82556,0,2.50291v29.99418c.01018.66661.28164,1.30239.75584,1.77058.4742.46807,1.11315.73088,1.77911.73185h29.86018c.67675.013,1.33101-.2431,1.81929-.7122.48834-.46916.77084-1.11295.78559-1.79023V2.50291c-.01018-.66661-.28158-1.30245-.75584-1.77052ZM5.21171,29.85269V13.07654h5.13982l.00591,16.77616h-5.14574Zm4.68099-19.9499c-.56029.56084-1.31869.87809-2.11105.88322v-.00781c-.5973.00348-1.18211-.17102-1.68008-.50121-.49798-.33013-.88657-.80113-1.11638-1.35299s-.29048-1.15964-.1742-1.74611.40414-1.12503.82705-1.54726.96175-.70903,1.54789-.82383c.58621-.11487,1.19327-.05261,1.74398.17889.55078.23144,1.02028.62169,1.34881,1.121.32859.49925.50127,1.08511.49633,1.683-.00512.79307-.32213,1.55227-.88236,2.1131Zm19.89565,19.94221h-5.13988v-9.234c0-1.6916-.59828-3.30551-2.78171-3.30551-2.2183,0-3.13328,1.58669-3.13328,3.52523v9.02197h-5.13598V13.07654h4.95928v2.36242h.06994c.60718-.85148,1.41088-1.54354,2.34251-2.01746.93169-.47399,1.96398-.71568,3.00902-.70475,3.90833,0,5.81011,2.67742,5.81011,6.16762v10.96064Z"/>
</svg>