<?xml version="1.0" encoding="UTF-8"?>
<svg id="Mail" xmlns="http://www.w3.org/2000/svg" viewBox="0 0 42 42">
  <path class="cls-1" d="m10,0C4.48867,0,0,4.48867,0,10v22c0,5.51133,4.48867,10,10,10h22c5.51133,0,10-4.48867,10-10V10c0-5.51133-4.48867-10-10-10H10Zm-1,12h24c.18,0,.34977.02031.50977.07031l-9.83008,9.82031c-1.48,1.48-3.88914,1.48-5.36914,0l-9.82031-9.82031c.16-.05.32977-.07031.50976-.07031Zm-1.92969,1.49023l7.51953,7.50977-7.51953,7.50977c-.05-.16-.07031-.32977-.07031-.50977v-14c0-.18.02031-.34977.07031-.50977Zm27.85938,0c.05.16.07031.32977.07031.50977v14c0,.18-.02031.34977-.07031.50977l-7.5293-7.50977,7.5293-7.50977Zm-18.92969,8.91993l.89063.90039c1.13,1.13,2.61961,1.68945,4.09961,1.68945,1.49,0,2.96961-.55945,4.09961-1.68945l.90039-.90039,7.51953,7.51953c-.16.05-.32977.07031-.50977.07031H9c-.18,0-.34977-.02031-.50977-.07031l7.50977-7.51953Z"/>
</svg>