<?xml version="1.0" encoding="UTF-8"?>
<svg id="Office" xmlns="http://www.w3.org/2000/svg" viewBox="0 0 42 42">
  <path d="m24.85052,23.56458h-3.09979v3.09979h3.09979v-3.09979ZM32,0H10C4.48865,0,0,4.48865,0,10v22c0,5.51135,4.48865,10,10,10h22c5.51135,0,10-4.48865,10-10V10c0-5.51135-4.48865-10-10-10Zm1.06488,32.10834h-12.83496v-8.54376h-4.60126v8.54376h-6.6839v-11.13983l12.06006-6.0058,12.06006,6.0058v11.13983Zm2.93512-11.62415c0,.15497-.07751.30029-.21313.38745-.06781.04846-.15497.06781-.24213.06781-.06781,0-.13562-.01935-.19373-.0484l-14.34619-7.16827-14.35583,7.16827c-.13556.06781-.30023.05811-.43585-.02911-.13562-.08716-.21313-.23248-.21313-.38745v-2.86731c0-.18402.09686-.33899.26154-.4165l14.54956-7.25543c.12592-.05811.26154-.05811.38751,0l14.53986,7.25543c.16467.06781.26154.23248.26154.40686v2.88666Z"/>
</svg>