<?xml version="1.0" encoding="UTF-8"?>
<svg id="ORCID" xmlns="http://www.w3.org/2000/svg" viewBox="0 0 72 72" fill="#A6CE39">
  <path d="m41.30219,25.94574h-6.68207v22.22662h6.90765c9.83978,0,12.09534-7.41821,12.09534-11.11334,0-6.01855-3.86261-11.11328-12.32092-11.11328Z"/>
  <path d="m36,0C16.1156,0,0,16.1156,0,36s16.1156,36,36,36,36-16.1156,36-36S55.8844,0,36,0Zm-12.09369,35.60339v16.43207h-4.34192v-29.98077h4.34192v13.54871Zm-2.17096-16.96393c-1.57886,0-2.8476-1.28766-2.8476-2.82727,0-1.56763,1.26874-2.82733,2.8476-2.82733s2.84766,1.28766,2.84766,2.82733-1.2688,2.82727-2.84766,2.82727Zm20.32806,33.42395h-11.78522v-30.00873h11.72882c11.16498,0,16.07074,7.92206,16.07074,15.00433,0,7.69818-6.06177,15.00439-16.01434,15.00439Z"/>
</svg>