<?xml version="1.0" encoding="UTF-8"?>
<svg id="Telephone" xmlns="http://www.w3.org/2000/svg" viewBox="0 0 42 42">
  <path d="m32,0H10C4.48865,0,0,4.48865,0,10v22c0,5.51135,4.48865,10,10,10h22c5.51135,0,10-4.48865,10-10V10c0-5.51135-4.48865-10-10-10Zm2.66614,33.45172c-2.11365,2.54828-3.59656,2.54828-5.4801,2.54828-2.02838,0-4.92615-1.25287-7.94318-3.43463-2.71021-1.96027-3.92047-2.86365-6.64771-5.65912-2.89777-2.97443-4.72162-5.44604-6.73297-9.12787-2.32672-4.25281-2.00287-6.29828-1.51703-7.875.32385-1.04828,1.18463-2.07953,2.36932-2.82953.0426-.02557.08521-.05963.12781-.08521.52844-.34094,1.52557-.98865,2.72729-.98865,1.0824,0,2.05396.51135,2.88916,1.53412l.08527.10223c.97156,1.18469,2.07098,2.53125,2.74432,3.9375.84375,1.78125.80963,3.31537-.11084,4.55969-.75848,1.03125-1.05676,1.58521-1.03125,1.92609.02557.34949.45172.82672,1.09949,1.55969l.05963.06818c1.3551,1.53412,1.73865,1.92615,2.26703,2.47162.09375.09375.1875.19598.29834.30676l.15338.16199c.6051.63068.9375.9801,2.49713,2.33521l.09375.08521c.5625.48584.81824.69885,1.05682.69885.43469,0,1.33807-.5625,2.47162-1.28693.38354-.24713.85229-.36646,1.38922-.36646,2.31818,0,5.8551,2.3949,7.09943,3.67328,1.32953,1.37219,2.25,3.00854.03406,5.68469Z"/>
</svg>